<svg xmlns="http://www.w3.org/2000/svg" viewBox="0 0 512 512">
  <defs>
    <linearGradient id="bg" x1="0" y1="0" x2="1" y2="1">
      <stop offset="0%" stop-color="#FFF8F0"/>
      <stop offset="100%" stop-color="#F5E6D3"/>
    </linearGradient>
    <linearGradient id="accent" x1="0" y1="0" x2="0" y2="1">
      <stop offset="0%" stop-color="#C41E3A"/>
      <stop offset="100%" stop-color="#9B1B30"/>
    </linearGradient>
  </defs>
  <rect width="512" height="512" rx="96" fill="url(#bg)"/>
  <circle cx="256" cy="230" r="130" fill="none" stroke="url(#accent)" stroke-width="8"/>
  <path d="M256 100 A130 130 0 0 1 256 360 A65 65 0 0 0 256 230 A65 65 0 0 1 256 100Z" fill="#C41E3A"/>
  <path d="M256 100 A130 130 0 0 0 256 360 A65 65 0 0 1 256 230 A65 65 0 0 0 256 100Z" fill="#2D1810"/>
  <circle cx="256" cy="165" r="16" fill="#2D1810"/>
  <circle cx="256" cy="295" r="16" fill="#C41E3A"/>
  <text x="256" y="430" text-anchor="middle" font-family="serif" font-size="60" font-weight="700" fill="#C41E3A">ĘĺĐż</text>
</svg>
